<svg xmlns="http://www.w3.org/2000/svg" viewBox="0 0 100 120" width="100" height="120" shape-rendering="crispEdges">
<defs>
  <filter id="cross-glow" x="-20%" y="-20%" width="140%" height="140%">
    <feDropShadow dx="0" dy="1" stdDeviation="1" flood-color="#f43f5e" flood-opacity="0.5"/>
  </filter>
</defs>
<g filter="url(#cross-glow)">
<rect x="8" y="112" width="84" height="6" fill="#3d1b2b"/>
<rect x="10" y="113" width="80" height="4" fill="#fed7aa"/>
<rect x="10" y="112" width="80" height="1" fill="#fff5eb"/>
<rect x="14" y="106" width="72" height="6" fill="#3d1b2b"/>
<rect x="16" y="107" width="68" height="4" fill="#fde68a"/>
<rect x="16" y="106" width="68" height="1" fill="#fffbeb"/>
<rect x="20" y="100" width="60" height="6" fill="#3d1b2b"/>
<rect x="22" y="101" width="56" height="4" fill="#fed7aa"/>
<rect x="22" y="100" width="56" height="1" fill="#ffffff"/>
<rect x="24" y="96" width="52" height="5" fill="#78350f"/>
<rect x="26" y="97" width="48" height="3" fill="#b45309"/>
<rect x="26" y="62" width="48" height="35" fill="#2a121e"/>
<rect x="48" y="65" width="4" height="32" fill="#1e1017"/>
<rect x="49" y="65" width="2" height="31" fill="#451a03"/>
<rect x="50" y="65" width="1" height="30" fill="#78350f"/>
<rect x="42" y="73" width="16" height="4" fill="#1e1017"/>
<rect x="43" y="74" width="14" height="2" fill="#78350f"/>
<rect x="43" y="74" width="14" height="1" fill="#d97706"/>
<rect x="49" y="74" width="2" height="2" fill="#fde047"/>
<rect x="50" y="74" width="1" height="1" fill="#ffffff"/>
<rect x="22" y="60" width="8" height="38" fill="#3d1b2b"/>
<rect x="23" y="60" width="6" height="37" fill="#fff5eb"/>
<rect x="23" y="60" width="2" height="37" fill="#ffffff"/>
<rect x="27" y="61" width="2" height="36" fill="#cbd5e1"/>
<rect x="70" y="60" width="8" height="38" fill="#3d1b2b"/>
<rect x="71" y="60" width="6" height="37" fill="#fff5eb"/>
<rect x="71" y="60" width="2" height="37" fill="#ffffff"/>
<rect x="75" y="61" width="2" height="36" fill="#cbd5e1"/>
<rect x="42" y="60" width="4" height="38" fill="#3d1b2b"/>
<rect x="43" y="60" width="2" height="37" fill="#fff5eb"/>
<rect x="54" y="60" width="4" height="38" fill="#3d1b2b"/>
<rect x="55" y="60" width="2" height="37" fill="#fff5eb"/>
<rect x="26" y="56" width="20" height="5" fill="#3d1b2b"/>
<rect x="28" y="57" width="16" height="3" fill="#fff5eb"/>
<rect x="42" y="53" width="16" height="6" fill="#3d1b2b"/>
<rect x="44" y="54" width="12" height="4" fill="#ffffff"/>
<rect x="54" y="56" width="20" height="5" fill="#3d1b2b"/>
<rect x="56" y="57" width="16" height="3" fill="#fff5eb"/>
<rect x="20" y="58" width="60" height="3" fill="#3d1b2b"/>
<rect x="21" y="58" width="58" height="2" fill="#fed7aa"/>
<rect x="19" y="94" width="3" height="3" fill="#16a34a"/>
<rect x="20" y="93" width="3" height="3" fill="#22c55e"/>
<rect x="18" y="92" width="3" height="3" fill="#fb7185"/>
<rect x="19" y="91" width="3" height="3" fill="#e11d48"/>
<rect x="20" y="85" width="3" height="3" fill="#15803d"/>
<rect x="21" y="84" width="3" height="3" fill="#4ade80"/>
<rect x="22" y="83" width="3" height="3" fill="#f43f5e"/>
<rect x="23" y="83" width="3" height="3" fill="#fda4af"/>
<rect x="19" y="76" width="3" height="3" fill="#16a34a"/>
<rect x="20" y="75" width="3" height="3" fill="#22c55e"/>
<rect x="18" y="74" width="3" height="3" fill="#fb7185"/>
<rect x="19" y="73" width="3" height="3" fill="#e11d48"/>
<rect x="21" y="67" width="3" height="3" fill="#15803d"/>
<rect x="22" y="66" width="3" height="3" fill="#4ade80"/>
<rect x="20" y="65" width="3" height="3" fill="#f43f5e"/>
<rect x="77" y="92" width="3" height="3" fill="#16a34a"/>
<rect x="78" y="91" width="3" height="3" fill="#f43f5e"/>
<rect x="76" y="82" width="3" height="3" fill="#22c55e"/>
<rect x="77" y="81" width="3" height="3" fill="#fb7185"/>
<rect x="12" y="50" width="76" height="6" fill="#3d1b2b"/>
<rect x="14" y="51" width="72" height="4" fill="#e11d48"/>
<rect x="14" y="51" width="72" height="1" fill="#fda4af"/>
<rect x="18" y="44" width="64" height="7" fill="#3d1b2b"/>
<rect x="20" y="45" width="60" height="5" fill="#f43f5e"/>
<rect x="20" y="45" width="60" height="1" fill="#fecdd3"/>
<rect x="24" y="45" width="2" height="5" fill="#be123c"/>
<rect x="24" y="45" width="1" height="5" fill="#fda4af"/>
<rect x="32" y="45" width="2" height="5" fill="#be123c"/>
<rect x="32" y="45" width="1" height="5" fill="#fda4af"/>
<rect x="40" y="45" width="2" height="5" fill="#be123c"/>
<rect x="40" y="45" width="1" height="5" fill="#fda4af"/>
<rect x="48" y="45" width="2" height="5" fill="#be123c"/>
<rect x="48" y="45" width="1" height="5" fill="#fda4af"/>
<rect x="56" y="45" width="2" height="5" fill="#be123c"/>
<rect x="56" y="45" width="1" height="5" fill="#fda4af"/>
<rect x="64" y="45" width="2" height="5" fill="#be123c"/>
<rect x="64" y="45" width="1" height="5" fill="#fda4af"/>
<rect x="72" y="45" width="2" height="5" fill="#be123c"/>
<rect x="72" y="45" width="1" height="5" fill="#fda4af"/>
<rect x="24" y="38" width="52" height="7" fill="#3d1b2b"/>
<rect x="26" y="39" width="48" height="5" fill="#e11d48"/>
<rect x="26" y="39" width="48" height="1" fill="#fda4af"/>
<rect x="30" y="39" width="2" height="5" fill="#9f1239"/>
<rect x="38" y="39" width="2" height="5" fill="#9f1239"/>
<rect x="46" y="39" width="2" height="5" fill="#9f1239"/>
<rect x="54" y="39" width="2" height="5" fill="#9f1239"/>
<rect x="62" y="39" width="2" height="5" fill="#9f1239"/>
<rect x="32" y="30" width="36" height="9" fill="#3d1b2b"/>
<rect x="34" y="31" width="32" height="7" fill="#fff5eb"/>
<rect x="38" y="33" width="6" height="4" fill="#3d1b2b"/>
<rect x="56" y="33" width="6" height="4" fill="#3d1b2b"/>
<rect x="34" y="24" width="32" height="7" fill="#3d1b2b"/>
<rect x="36" y="25" width="28" height="5" fill="#f43f5e"/>
<rect x="36" y="25" width="28" height="1" fill="#fecdd3"/>
<rect x="40" y="18" width="20" height="7" fill="#3d1b2b"/>
<rect x="42" y="19" width="16" height="5" fill="#e11d48"/>
<rect x="42" y="19" width="16" height="1" fill="#fda4af"/>
<rect x="45" y="13" width="10" height="6" fill="#3d1b2b"/>
<rect x="46" y="14" width="8" height="4" fill="#f43f5e"/>
<rect x="48" y="0" width="4" height="14" fill="#3d1b2b"/>
<rect x="49" y="1" width="2" height="12" fill="#b45309"/>
<rect x="49" y="1" width="1" height="12" fill="#fde047"/>
<rect x="42" y="4" width="16" height="4" fill="#3d1b2b"/>
<rect x="43" y="5" width="14" height="2" fill="#b45309"/>
<rect x="43" y="5" width="14" height="1" fill="#fde047"/>
<rect x="49" y="4" width="2" height="2" fill="#ffffff" class="cross-sparkle"/>
</g>
</svg>