<svg xmlns="http://www.w3.org/2000/svg" viewBox="0 0 64 64" width="64" height="64" shape-rendering="crispEdges">
<rect x="48" y="7" width="5" height="1" fill="#14532d"/>
<rect x="53" y="7" width="3" height="1" fill="#4ade80"/>
<rect x="47" y="8" width="1" height="1" fill="#14532d"/>
<rect x="48" y="8" width="1" height="1" fill="#15803d"/>
<rect x="49" y="8" width="3" height="1" fill="#14532d"/>
<rect x="52" y="8" width="1" height="1" fill="#4ade80"/>
<rect x="53" y="8" width="3" height="1" fill="#86efac"/>
<rect x="45" y="9" width="2" height="1" fill="#14532d"/>
<rect x="47" y="9" width="4" height="1" fill="#15803d"/>
<rect x="51" y="9" width="1" height="1" fill="#4ade80"/>
<rect x="52" y="9" width="1" height="1" fill="#86efac"/>
<rect x="53" y="9" width="3" height="1" fill="#4ade80"/>
<rect x="10" y="10" width="7" height="1" fill="#14532d"/>
<rect x="43" y="10" width="2" height="1" fill="#14532d"/>
<rect x="45" y="10" width="3" height="1" fill="#15803d"/>
<rect x="48" y="10" width="1" height="1" fill="#22c55e"/>
<rect x="49" y="10" width="1" height="1" fill="#15803d"/>
<rect x="50" y="10" width="1" height="1" fill="#4ade80"/>
<rect x="51" y="10" width="1" height="1" fill="#86efac"/>
<rect x="52" y="10" width="3" height="1" fill="#4ade80"/>
<rect x="8" y="11" width="4" height="1" fill="#4ade80"/>
<rect x="12" y="11" width="1" height="1" fill="#15803d"/>
<rect x="13" y="11" width="3" height="1" fill="#14532d"/>
<rect x="16" y="11" width="1" height="1" fill="#15803d"/>
<rect x="17" y="11" width="1" height="1" fill="#14532d"/>
<rect x="42" y="11" width="1" height="1" fill="#14532d"/>
<rect x="43" y="11" width="4" height="1" fill="#15803d"/>
<rect x="47" y="11" width="1" height="1" fill="#22c55e"/>
<rect x="48" y="11" width="2" height="1" fill="#4ade80"/>
<rect x="50" y="11" width="1" height="1" fill="#86efac"/>
<rect x="51" y="11" width="3" height="1" fill="#4ade80"/>
<rect x="8" y="12" width="4" height="1" fill="#86efac"/>
<rect x="12" y="12" width="1" height="1" fill="#4ade80"/>
<rect x="13" y="12" width="5" height="1" fill="#15803d"/>
<rect x="18" y="12" width="2" height="1" fill="#14532d"/>
<rect x="42" y="12" width="1" height="1" fill="#f43f5e"/>
<rect x="43" y="12" width="2" height="1" fill="#15803d"/>
<rect x="45" y="12" width="3" height="1" fill="#22c55e"/>
<rect x="48" y="12" width="2" height="1" fill="#86efac"/>
<rect x="50" y="12" width="1" height="1" fill="#4ade80"/>
<rect x="51" y="12" width="3" height="1" fill="#14532d"/>
<rect x="8" y="13" width="4" height="1" fill="#4ade80"/>
<rect x="12" y="13" width="1" height="1" fill="#86efac"/>
<rect x="13" y="13" width="1" height="1" fill="#4ade80"/>
<rect x="14" y="13" width="2" height="1" fill="#15803d"/>
<rect x="16" y="13" width="1" height="1" fill="#22c55e"/>
<rect x="17" y="13" width="3" height="1" fill="#15803d"/>
<rect x="20" y="13" width="1" height="1" fill="#14532d"/>
<rect x="34" y="13" width="1" height="1" fill="#fb7185"/>
<rect x="36" y="13" width="2" height="1" fill="#f43f5e"/>
<rect x="39" y="13" width="3" height="1" fill="#f43f5e"/>
<rect x="42" y="13" width="1" height="1" fill="#15803d"/>
<rect x="43" y="13" width="4" height="1" fill="#22c55e"/>
<rect x="47" y="13" width="3" height="1" fill="#4ade80"/>
<rect x="50" y="13" width="1" height="1" fill="#15803d"/>
<rect x="51" y="13" width="3" height="1" fill="#14532d"/>
<rect x="9" y="14" width="4" height="1" fill="#4ade80"/>
<rect x="13" y="14" width="1" height="1" fill="#86efac"/>
<rect x="14" y="14" width="1" height="1" fill="#4ade80"/>
<rect x="15" y="14" width="3" height="1" fill="#22c55e"/>
<rect x="18" y="14" width="3" height="1" fill="#15803d"/>
<rect x="21" y="14" width="1" height="1" fill="#14532d"/>
<rect x="32" y="14" width="2" height="1" fill="#fb7185"/>
<rect x="35" y="14" width="2" height="1" fill="#fb7185"/>
<rect x="38" y="14" width="2" height="1" fill="#fb7185"/>
<rect x="40" y="14" width="3" height="1" fill="#f43f5e"/>
<rect x="43" y="14" width="2" height="1" fill="#22c55e"/>
<rect x="45" y="14" width="2" height="1" fill="#4ade80"/>
<rect x="47" y="14" width="1" height="1" fill="#86efac"/>
<rect x="48" y="14" width="1" height="1" fill="#22c55e"/>
<rect x="49" y="14" width="1" height="1" fill="#15803d"/>
<rect x="50" y="14" width="3" height="1" fill="#14532d"/>
<rect x="9" y="15" width="3" height="1" fill="#14532d"/>
<rect x="12" y="15" width="1" height="1" fill="#15803d"/>
<rect x="13" y="15" width="1" height="1" fill="#4ade80"/>
<rect x="14" y="15" width="1" height="1" fill="#86efac"/>
<rect x="15" y="15" width="2" height="1" fill="#4ade80"/>
<rect x="17" y="15" width="3" height="1" fill="#22c55e"/>
<rect x="20" y="15" width="2" height="1" fill="#15803d"/>
<rect x="22" y="15" width="2" height="1" fill="#14532d"/>
<rect x="31" y="15" width="2" height="1" fill="#fb7185"/>
<rect x="34" y="15" width="6" height="1" fill="#fb7185"/>
<rect x="40" y="15" width="3" height="1" fill="#f43f5e"/>
<rect x="43" y="15" width="2" height="1" fill="#22c55e"/>
<rect x="45" y="15" width="2" height="1" fill="#86efac"/>
<rect x="47" y="15" width="1" height="1" fill="#4ade80"/>
<rect x="48" y="15" width="4" height="1" fill="#15803d"/>
<rect x="10" y="16" width="3" height="1" fill="#14532d"/>
<rect x="13" y="16" width="1" height="1" fill="#15803d"/>
<rect x="14" y="16" width="1" height="1" fill="#4ade80"/>
<rect x="15" y="16" width="2" height="1" fill="#86efac"/>
<rect x="17" y="16" width="1" height="1" fill="#f43f5e"/>
<rect x="18" y="16" width="2" height="1" fill="#22c55e"/>
<rect x="20" y="16" width="1" height="1" fill="#f43f5e"/>
<rect x="21" y="16" width="3" height="1" fill="#15803d"/>
<rect x="28" y="16" width="1" height="1" fill="#fda4af"/>
<rect x="30" y="16" width="1" height="1" fill="#fda4af"/>
<rect x="31" y="16" width="2" height="1" fill="#ffffff"/>
<rect x="33" y="16" width="3" height="1" fill="#fb7185"/>
<rect x="37" y="16" width="5" height="1" fill="#fb7185"/>
<rect x="42" y="16" width="2" height="1" fill="#f43f5e"/>
<rect x="44" y="16" width="3" height="1" fill="#4ade80"/>
<rect x="47" y="16" width="1" height="1" fill="#22c55e"/>
<rect x="48" y="16" width="1" height="1" fill="#15803d"/>
<rect x="49" y="16" width="3" height="1" fill="#14532d"/>
<rect x="11" y="17" width="3" height="1" fill="#14532d"/>
<rect x="14" y="17" width="1" height="1" fill="#15803d"/>
<rect x="15" y="17" width="2" height="1" fill="#4ade80"/>
<rect x="17" y="17" width="4" height="1" fill="#f43f5e"/>
<rect x="21" y="17" width="3" height="1" fill="#fb7185"/>
<rect x="24" y="17" width="1" height="1" fill="#14532d"/>
<rect x="28" y="17" width="2" height="1" fill="#fda4af"/>
<rect x="30" y="17" width="3" height="1" fill="#ffffff"/>
<rect x="34" y="17" width="2" height="1" fill="#ffffff"/>
<rect x="36" y="17" width="3" height="1" fill="#fb7185"/>
<rect x="39" y="17" width="1" height="1" fill="#15803d"/>
<rect x="40" y="17" width="4" height="1" fill="#fb7185"/>
<rect x="44" y="17" width="1" height="1" fill="#86efac"/>
<rect x="45" y="17" width="3" height="1" fill="#22c55e"/>
<rect x="48" y="17" width="3" height="1" fill="#14532d"/>
<rect x="12" y="18" width="3" height="1" fill="#15803d"/>
<rect x="15" y="18" width="1" height="1" fill="#22c55e"/>
<rect x="16" y="18" width="4" height="1" fill="#f43f5e"/>
<rect x="20" y="18" width="4" height="1" fill="#fb7185"/>
<rect x="24" y="18" width="2" height="1" fill="#fda4af"/>
<rect x="28" y="18" width="1" height="1" fill="#fda4af"/>
<rect x="29" y="18" width="1" height="1" fill="#fbcfe8"/>
<rect x="30" y="18" width="2" height="1" fill="#ffffff"/>
<rect x="33" y="18" width="6" height="1" fill="#ffffff"/>
<rect x="39" y="18" width="6" height="1" fill="#fb7185"/>
<rect x="45" y="18" width="2" height="1" fill="#22c55e"/>
<rect x="47" y="18" width="1" height="1" fill="#15803d"/>
<rect x="48" y="18" width="3" height="1" fill="#14532d"/>
<rect x="12" y="19" width="3" height="1" fill="#14532d"/>
<rect x="15" y="19" width="1" height="1" fill="#15803d"/>
<rect x="16" y="19" width="1" height="1" fill="#22c55e"/>
<rect x="17" y="19" width="2" height="1" fill="#f43f5e"/>
<rect x="19" y="19" width="1" height="1" fill="#fb7185"/>
<rect x="20" y="19" width="1" height="1" fill="#86efac"/>
<rect x="21" y="19" width="2" height="1" fill="#fb7185"/>
<rect x="23" y="19" width="2" height="1" fill="#ffffff"/>
<rect x="25" y="19" width="1" height="1" fill="#fda4af"/>
<rect x="26" y="19" width="3" height="1" fill="#ffffff"/>
<rect x="29" y="19" width="1" height="1" fill="#fbcfe8"/>
<rect x="30" y="19" width="13" height="1" fill="#ffffff"/>
<rect x="43" y="19" width="2" height="1" fill="#fb7185"/>
<rect x="45" y="19" width="5" height="1" fill="#15803d"/>
<rect x="12" y="20" width="3" height="1" fill="#14532d"/>
<rect x="15" y="20" width="1" height="1" fill="#15803d"/>
<rect x="16" y="20" width="1" height="1" fill="#f43f5e"/>
<rect x="17" y="20" width="5" height="1" fill="#fb7185"/>
<rect x="22" y="20" width="7" height="1" fill="#ffffff"/>
<rect x="29" y="20" width="1" height="1" fill="#fbcfe8"/>
<rect x="30" y="20" width="1" height="1" fill="#ffffff"/>
<rect x="32" y="20" width="11" height="1" fill="#ffffff"/>
<rect x="43" y="20" width="1" height="1" fill="#fda4af"/>
<rect x="44" y="20" width="1" height="1" fill="#22c55e"/>
<rect x="45" y="20" width="2" height="1" fill="#15803d"/>
<rect x="47" y="20" width="3" height="1" fill="#14532d"/>
<rect x="13" y="21" width="3" height="1" fill="#14532d"/>
<rect x="16" y="21" width="1" height="1" fill="#fb7185"/>
<rect x="17" y="21" width="1" height="1" fill="#15803d"/>
<rect x="18" y="21" width="3" height="1" fill="#fb7185"/>
<rect x="21" y="21" width="1" height="1" fill="#4ade80"/>
<rect x="22" y="21" width="4" height="1" fill="#ffffff"/>
<rect x="26" y="21" width="4" height="1" fill="#fefce8"/>
<rect x="30" y="21" width="1" height="1" fill="#fbcfe8"/>
<rect x="31" y="21" width="11" height="1" fill="#ffffff"/>
<rect x="42" y="21" width="3" height="1" fill="#fda4af"/>
<rect x="45" y="21" width="4" height="1" fill="#14532d"/>
<rect x="14" y="22" width="2" height="1" fill="#14532d"/>
<rect x="16" y="22" width="1" height="1" fill="#f43f5e"/>
<rect x="17" y="22" width="4" height="1" fill="#fb7185"/>
<rect x="21" y="22" width="5" height="1" fill="#ffffff"/>
<rect x="26" y="22" width="4" height="1" fill="#fefce8"/>
<rect x="31" y="22" width="5" height="1" fill="#fefce8"/>
<rect x="36" y="22" width="7" height="1" fill="#ffffff"/>
<rect x="43" y="22" width="5" height="1" fill="#15803d"/>
<rect x="15" y="23" width="1" height="1" fill="#f43f5e"/>
<rect x="16" y="23" width="2" height="1" fill="#fb7185"/>
<rect x="18" y="23" width="1" height="1" fill="#15803d"/>
<rect x="19" y="23" width="1" height="1" fill="#fb7185"/>
<rect x="20" y="23" width="5" height="1" fill="#ffffff"/>
<rect x="25" y="23" width="1" height="1" fill="#86efac"/>
<rect x="26" y="23" width="2" height="1" fill="#fefce8"/>
<rect x="28" y="23" width="1" height="1" fill="#fef08a"/>
<rect x="30" y="23" width="1" height="1" fill="#fbcfe8"/>
<rect x="31" y="23" width="10" height="1" fill="#fefce8"/>
<rect x="41" y="23" width="3" height="1" fill="#ffffff"/>
<rect x="44" y="23" width="1" height="1" fill="#fda4af"/>
<rect x="45" y="23" width="1" height="1" fill="#14532d"/>
<rect x="46" y="23" width="1" height="1" fill="#fda4af"/>
<rect x="47" y="23" width="1" height="1" fill="#14532d"/>
<rect x="15" y="24" width="4" height="1" fill="#fb7185"/>
<rect x="19" y="24" width="2" height="1" fill="#ffffff"/>
<rect x="21" y="24" width="1" height="1" fill="#15803d"/>
<rect x="22" y="24" width="3" height="1" fill="#ffffff"/>
<rect x="25" y="24" width="2" height="1" fill="#fefce8"/>
<rect x="27" y="24" width="1" height="1" fill="#fef08a"/>
<rect x="28" y="24" width="1" height="1" fill="#4ade80"/>
<rect x="29" y="24" width="1" height="1" fill="#fef08a"/>
<rect x="30" y="24" width="1" height="1" fill="#fbcfe8"/>
<rect x="31" y="24" width="5" height="1" fill="#fef08a"/>
<rect x="36" y="24" width="6" height="1" fill="#fefce8"/>
<rect x="42" y="24" width="2" height="1" fill="#ffffff"/>
<rect x="44" y="24" width="1" height="1" fill="#14532d"/>
<rect x="45" y="24" width="2" height="1" fill="#fda4af"/>
<rect x="16" y="25" width="2" height="1" fill="#fb7185"/>
<rect x="18" y="25" width="1" height="1" fill="#14532d"/>
<rect x="19" y="25" width="5" height="1" fill="#ffffff"/>
<rect x="24" y="25" width="1" height="1" fill="#15803d"/>
<rect x="25" y="25" width="1" height="1" fill="#fefce8"/>
<rect x="26" y="25" width="1" height="1" fill="#fef08a"/>
<rect x="27" y="25" width="1" height="1" fill="#4ade80"/>
<rect x="28" y="25" width="2" height="1" fill="#fef08a"/>
<rect x="30" y="25" width="1" height="1" fill="#fbcfe8"/>
<rect x="31" y="25" width="9" height="1" fill="#fef08a"/>
<rect x="40" y="25" width="2" height="1" fill="#fefce8"/>
<rect x="42" y="25" width="1" height="1" fill="#ffffff"/>
<rect x="43" y="25" width="1" height="1" fill="#fbcfe8"/>
<rect x="44" y="25" width="1" height="1" fill="#14532d"/>
<rect x="45" y="25" width="2" height="1" fill="#ffffff"/>
<rect x="47" y="25" width="1" height="1" fill="#fda4af"/>
<rect x="48" y="25" width="1" height="1" fill="#fb7185"/>
<rect x="15" y="26" width="3" height="1" fill="#fb7185"/>
<rect x="18" y="26" width="3" height="1" fill="#ffffff"/>
<rect x="21" y="26" width="1" height="1" fill="#14532d"/>
<rect x="22" y="26" width="2" height="1" fill="#ffffff"/>
<rect x="24" y="26" width="2" height="1" fill="#fefce8"/>
<rect x="26" y="26" width="5" height="1" fill="#fef08a"/>
<rect x="31" y="26" width="1" height="1" fill="#fbcfe8"/>
<rect x="32" y="26" width="5" height="1" fill="#fef08a"/>
<rect x="37" y="26" width="1" height="1" fill="#15803d"/>
<rect x="38" y="26" width="2" height="1" fill="#fef08a"/>
<rect x="40" y="26" width="1" height="1" fill="#fefce8"/>
<rect x="41" y="26" width="2" height="1" fill="#fbcfe8"/>
<rect x="43" y="26" width="1" height="1" fill="#14532d"/>
<rect x="44" y="26" width="4" height="1" fill="#ffffff"/>
<rect x="48" y="26" width="1" height="1" fill="#fb7185"/>
<rect x="16" y="27" width="1" height="1" fill="#fb7185"/>
<rect x="17" y="27" width="1" height="1" fill="#ffffff"/>
<rect x="19" y="27" width="4" height="1" fill="#ffffff"/>
<rect x="23" y="27" width="2" height="1" fill="#fefce8"/>
<rect x="25" y="27" width="1" height="1" fill="#14532d"/>
<rect x="26" y="27" width="1" height="1" fill="#fef08a"/>
<rect x="27" y="27" width="1" height="1" fill="#4ade80"/>
<rect x="28" y="27" width="1" height="1" fill="#fef08a"/>
<rect x="29" y="27" width="1" height="1" fill="#4ade80"/>
<rect x="30" y="27" width="5" height="1" fill="#fde047"/>
<rect x="35" y="27" width="2" height="1" fill="#15803d"/>
<rect x="37" y="27" width="3" height="1" fill="#fef08a"/>
<rect x="40" y="27" width="2" height="1" fill="#fbcfe8"/>
<rect x="42" y="27" width="1" height="1" fill="#ffffff"/>
<rect x="43" y="27" width="1" height="1" fill="#14532d"/>
<rect x="44" y="27" width="4" height="1" fill="#ffffff"/>
<rect x="48" y="27" width="2" height="1" fill="#fb7185"/>
<rect x="15" y="28" width="1" height="1" fill="#fb7185"/>
<rect x="16" y="28" width="1" height="1" fill="#ffffff"/>
<rect x="18" y="28" width="4" height="1" fill="#ffffff"/>
<rect x="23" y="28" width="2" height="1" fill="#fefce8"/>
<rect x="25" y="28" width="3" height="1" fill="#fef08a"/>
<rect x="28" y="28" width="1" height="1" fill="#fde047"/>
<rect x="31" y="28" width="3" height="1" fill="#f59e0b"/>
<rect x="34" y="28" width="3" height="1" fill="#14532d"/>
<rect x="37" y="28" width="1" height="1" fill="#fef08a"/>
<rect x="38" y="28" width="2" height="1" fill="#fbcfe8"/>
<rect x="40" y="28" width="2" height="1" fill="#fefce8"/>
<rect x="43" y="28" width="5" height="1" fill="#ffffff"/>
<rect x="48" y="28" width="3" height="1" fill="#fb7185"/>
<rect x="16" y="29" width="1" height="1" fill="#fda4af"/>
<rect x="17" y="29" width="2" height="1" fill="#ffffff"/>
<rect x="20" y="29" width="2" height="1" fill="#ffffff"/>
<rect x="22" y="29" width="1" height="1" fill="#fefce8"/>
<rect x="24" y="29" width="1" height="1" fill="#fefce8"/>
<rect x="25" y="29" width="3" height="1" fill="#fef08a"/>
<rect x="28" y="29" width="1" height="1" fill="#fde047"/>
<rect x="30" y="29" width="5" height="1" fill="#f59e0b"/>
<rect x="35" y="29" width="1" height="1" fill="#4ade80"/>
<rect x="36" y="29" width="1" height="1" fill="#fde047"/>
<rect x="37" y="29" width="1" height="1" fill="#fbcfe8"/>
<rect x="38" y="29" width="2" height="1" fill="#fef08a"/>
<rect x="41" y="29" width="2" height="1" fill="#fefce8"/>
<rect x="43" y="29" width="5" height="1" fill="#ffffff"/>
<rect x="48" y="29" width="3" height="1" fill="#fb7185"/>
<rect x="16" y="30" width="1" height="1" fill="#fda4af"/>
<rect x="18" y="30" width="3" height="1" fill="#ffffff"/>
<rect x="22" y="30" width="2" height="1" fill="#fefce8"/>
<rect x="24" y="30" width="3" height="1" fill="#fef08a"/>
<rect x="27" y="30" width="1" height="1" fill="#fde047"/>
<rect x="29" y="30" width="2" height="1" fill="#f59e0b"/>
<rect x="31" y="30" width="1" height="1" fill="#d97706"/>
<rect x="32" y="30" width="1" height="1" fill="#fde047"/>
<rect x="33" y="30" width="1" height="1" fill="#d97706"/>
<rect x="34" y="30" width="2" height="1" fill="#f59e0b"/>
<rect x="36" y="30" width="2" height="1" fill="#fde047"/>
<rect x="38" y="30" width="3" height="1" fill="#fef08a"/>
<rect x="41" y="30" width="2" height="1" fill="#fefce8"/>
<rect x="43" y="30" width="5" height="1" fill="#ffffff"/>
<rect x="48" y="30" width="3" height="1" fill="#fb7185"/>
<rect x="51" y="30" width="1" height="1" fill="#f43f5e"/>
<rect x="16" y="31" width="2" height="1" fill="#fda4af"/>
<rect x="19" y="31" width="3" height="1" fill="#fbcfe8"/>
<rect x="22" y="31" width="1" height="1" fill="#4ade80"/>
<rect x="23" y="31" width="1" height="1" fill="#fbcfe8"/>
<rect x="24" y="31" width="1" height="1" fill="#4ade80"/>
<rect x="25" y="31" width="2" height="1" fill="#fbcfe8"/>
<rect x="27" y="31" width="1" height="1" fill="#fde047"/>
<rect x="28" y="31" width="2" height="1" fill="#f59e0b"/>
<rect x="30" y="31" width="3" height="1" fill="#d97706"/>
<rect x="33" y="31" width="1" height="1" fill="#fef08a"/>
<rect x="34" y="31" width="1" height="1" fill="#d97706"/>
<rect x="35" y="31" width="2" height="1" fill="#f59e0b"/>
<rect x="37" y="31" width="1" height="1" fill="#fde047"/>
<rect x="38" y="31" width="3" height="1" fill="#fef08a"/>
<rect x="41" y="31" width="2" height="1" fill="#fefce8"/>
<rect x="43" y="31" width="5" height="1" fill="#ffffff"/>
<rect x="48" y="31" width="3" height="1" fill="#fb7185"/>
<rect x="51" y="31" width="1" height="1" fill="#f43f5e"/>
<rect x="53" y="31" width="1" height="1" fill="#ffffff"/>
<rect x="54" y="31" width="1" height="1" fill="#fda4af"/>
<rect x="17" y="32" width="1" height="1" fill="#fda4af"/>
<rect x="18" y="32" width="2" height="1" fill="#ffffff"/>
<rect x="20" y="32" width="1" height="1" fill="#14532d"/>
<rect x="21" y="32" width="2" height="1" fill="#fefce8"/>
<rect x="23" y="32" width="4" height="1" fill="#fef08a"/>
<rect x="27" y="32" width="1" height="1" fill="#fde047"/>
<rect x="28" y="32" width="2" height="1" fill="#f59e0b"/>
<rect x="30" y="32" width="1" height="1" fill="#fde047"/>
<rect x="31" y="32" width="1" height="1" fill="#d97706"/>
<rect x="32" y="32" width="1" height="1" fill="#b45309"/>
<rect x="33" y="32" width="1" height="1" fill="#d97706"/>
<rect x="34" y="32" width="1" height="1" fill="#fde047"/>
<rect x="35" y="32" width="2" height="1" fill="#f59e0b"/>
<rect x="37" y="32" width="1" height="1" fill="#fde047"/>
<rect x="38" y="32" width="3" height="1" fill="#fef08a"/>
<rect x="41" y="32" width="2" height="1" fill="#fefce8"/>
<rect x="43" y="32" width="5" height="1" fill="#ffffff"/>
<rect x="48" y="32" width="4" height="1" fill="#fb7185"/>
<rect x="52" y="32" width="1" height="1" fill="#f43f5e"/>
<rect x="18" y="33" width="2" height="1" fill="#ffffff"/>
<rect x="20" y="33" width="2" height="1" fill="#fefce8"/>
<rect x="22" y="33" width="1" height="1" fill="#86efac"/>
<rect x="23" y="33" width="3" height="1" fill="#fef08a"/>
<rect x="28" y="33" width="2" height="1" fill="#f59e0b"/>
<rect x="30" y="33" width="1" height="1" fill="#d97706"/>
<rect x="31" y="33" width="1" height="1" fill="#fef08a"/>
<rect x="32" y="33" width="3" height="1" fill="#d97706"/>
<rect x="35" y="33" width="2" height="1" fill="#f59e0b"/>
<rect x="37" y="33" width="1" height="1" fill="#fde047"/>
<rect x="38" y="33" width="3" height="1" fill="#fef08a"/>
<rect x="41" y="33" width="2" height="1" fill="#fefce8"/>
<rect x="43" y="33" width="5" height="1" fill="#ffffff"/>
<rect x="48" y="33" width="4" height="1" fill="#fb7185"/>
<rect x="52" y="33" width="1" height="1" fill="#fda4af"/>
<rect x="53" y="33" width="1" height="1" fill="#fb7185"/>
<rect x="16" y="34" width="2" height="1" fill="#fda4af"/>
<rect x="18" y="34" width="2" height="1" fill="#ffffff"/>
<rect x="20" y="34" width="2" height="1" fill="#fefce8"/>
<rect x="22" y="34" width="4" height="1" fill="#fef08a"/>
<rect x="29" y="34" width="2" height="1" fill="#f59e0b"/>
<rect x="31" y="34" width="1" height="1" fill="#d97706"/>
<rect x="32" y="34" width="1" height="1" fill="#fde047"/>
<rect x="33" y="34" width="1" height="1" fill="#d97706"/>
<rect x="34" y="34" width="2" height="1" fill="#f59e0b"/>
<rect x="39" y="34" width="2" height="1" fill="#fef08a"/>
<rect x="41" y="34" width="2" height="1" fill="#fefce8"/>
<rect x="43" y="34" width="5" height="1" fill="#ffffff"/>
<rect x="48" y="34" width="3" height="1" fill="#fb7185"/>
<rect x="51" y="34" width="3" height="1" fill="#f43f5e"/>
<rect x="15" y="35" width="1" height="1" fill="#fb7185"/>
<rect x="16" y="35" width="3" height="1" fill="#fda4af"/>
<rect x="19" y="35" width="2" height="1" fill="#ffffff"/>
<rect x="21" y="35" width="2" height="1" fill="#fefce8"/>
<rect x="23" y="35" width="1" height="1" fill="#15803d"/>
<rect x="24" y="35" width="4" height="1" fill="#fef08a"/>
<rect x="28" y="35" width="2" height="1" fill="#fde047"/>
<rect x="30" y="35" width="5" height="1" fill="#f59e0b"/>
<rect x="35" y="35" width="2" height="1" fill="#fde047"/>
<rect x="39" y="35" width="3" height="1" fill="#fef08a"/>
<rect x="42" y="35" width="1" height="1" fill="#fefce8"/>
<rect x="43" y="35" width="5" height="1" fill="#ffffff"/>
<rect x="48" y="35" width="5" height="1" fill="#fb7185"/>
<rect x="53" y="35" width="1" height="1" fill="#f43f5e"/>
<rect x="14" y="36" width="1" height="1" fill="#14532d"/>
<rect x="15" y="36" width="1" height="1" fill="#fb7185"/>
<rect x="16" y="36" width="6" height="1" fill="#ffffff"/>
<rect x="22" y="36" width="3" height="1" fill="#fefce8"/>
<rect x="25" y="36" width="3" height="1" fill="#fef08a"/>
<rect x="29" y="36" width="2" height="1" fill="#fde047"/>
<rect x="31" y="36" width="3" height="1" fill="#f59e0b"/>
<rect x="35" y="36" width="2" height="1" fill="#fde047"/>
<rect x="37" y="36" width="1" height="1" fill="#fbcfe8"/>
<rect x="38" y="36" width="4" height="1" fill="#fef08a"/>
<rect x="42" y="36" width="1" height="1" fill="#fefce8"/>
<rect x="43" y="36" width="5" height="1" fill="#ffffff"/>
<rect x="48" y="36" width="3" height="1" fill="#fb7185"/>
<rect x="51" y="36" width="4" height="1" fill="#f43f5e"/>
<rect x="13" y="37" width="1" height="1" fill="#14532d"/>
<rect x="14" y="37" width="3" height="1" fill="#fb7185"/>
<rect x="17" y="37" width="4" height="1" fill="#ffffff"/>
<rect x="21" y="37" width="1" height="1" fill="#22c55e"/>
<rect x="22" y="37" width="1" height="1" fill="#ffffff"/>
<rect x="23" y="37" width="2" height="1" fill="#fefce8"/>
<rect x="25" y="37" width="1" height="1" fill="#14532d"/>
<rect x="26" y="37" width="4" height="1" fill="#fef08a"/>
<rect x="30" y="37" width="1" height="1" fill="#fde047"/>
<rect x="33" y="37" width="2" height="1" fill="#fde047"/>
<rect x="35" y="37" width="2" height="1" fill="#fef08a"/>
<rect x="37" y="37" width="2" height="1" fill="#fbcfe8"/>
<rect x="39" y="37" width="2" height="1" fill="#fef08a"/>
<rect x="41" y="37" width="3" height="1" fill="#fefce8"/>
<rect x="44" y="37" width="4" height="1" fill="#ffffff"/>
<rect x="48" y="37" width="3" height="1" fill="#fb7185"/>
<rect x="51" y="37" width="1" height="1" fill="#f43f5e"/>
<rect x="11" y="38" width="1" height="1" fill="#14532d"/>
<rect x="12" y="38" width="2" height="1" fill="#15803d"/>
<rect x="14" y="38" width="1" height="1" fill="#f43f5e"/>
<rect x="15" y="38" width="3" height="1" fill="#fb7185"/>
<rect x="18" y="38" width="6" height="1" fill="#ffffff"/>
<rect x="24" y="38" width="3" height="1" fill="#fefce8"/>
<rect x="27" y="38" width="2" height="1" fill="#fef08a"/>
<rect x="30" y="38" width="1" height="1" fill="#fbcfe8"/>
<rect x="33" y="38" width="2" height="1" fill="#fef08a"/>
<rect x="36" y="38" width="1" height="1" fill="#fef08a"/>
<rect x="38" y="38" width="1" height="1" fill="#fef08a"/>
<rect x="40" y="38" width="4" height="1" fill="#fefce8"/>
<rect x="44" y="38" width="1" height="1" fill="#ffffff"/>
<rect x="45" y="38" width="2" height="1" fill="#fda4af"/>
<rect x="47" y="38" width="1" height="1" fill="#ffffff"/>
<rect x="48" y="38" width="2" height="1" fill="#fb7185"/>
<rect x="50" y="38" width="2" height="1" fill="#f43f5e"/>
<rect x="52" y="38" width="1" height="1" fill="#e11d48"/>
<rect x="10" y="39" width="1" height="1" fill="#14532d"/>
<rect x="11" y="39" width="2" height="1" fill="#15803d"/>
<rect x="13" y="39" width="1" height="1" fill="#22c55e"/>
<rect x="14" y="39" width="1" height="1" fill="#f43f5e"/>
<rect x="15" y="39" width="4" height="1" fill="#fb7185"/>
<rect x="19" y="39" width="6" height="1" fill="#ffffff"/>
<rect x="25" y="39" width="2" height="1" fill="#fefce8"/>
<rect x="27" y="39" width="2" height="1" fill="#fef08a"/>
<rect x="29" y="39" width="1" height="1" fill="#fbcfe8"/>
<rect x="30" y="39" width="8" height="1" fill="#fef08a"/>
<rect x="38" y="39" width="2" height="1" fill="#fefce8"/>
<rect x="40" y="39" width="1" height="1" fill="#fbcfe8"/>
<rect x="41" y="39" width="1" height="1" fill="#fefce8"/>
<rect x="43" y="39" width="2" height="1" fill="#ffffff"/>
<rect x="45" y="39" width="3" height="1" fill="#fda4af"/>
<rect x="48" y="39" width="2" height="1" fill="#fb7185"/>
<rect x="9" y="40" width="1" height="1" fill="#14532d"/>
<rect x="10" y="40" width="2" height="1" fill="#15803d"/>
<rect x="12" y="40" width="2" height="1" fill="#22c55e"/>
<rect x="14" y="40" width="2" height="1" fill="#f43f5e"/>
<rect x="16" y="40" width="3" height="1" fill="#fb7185"/>
<rect x="19" y="40" width="5" height="1" fill="#ffffff"/>
<rect x="24" y="40" width="1" height="1" fill="#15803d"/>
<rect x="25" y="40" width="1" height="1" fill="#ffffff"/>
<rect x="26" y="40" width="2" height="1" fill="#fefce8"/>
<rect x="29" y="40" width="2" height="1" fill="#fef08a"/>
<rect x="32" y="40" width="3" height="1" fill="#fef08a"/>
<rect x="35" y="40" width="5" height="1" fill="#fefce8"/>
<rect x="40" y="40" width="1" height="1" fill="#ffffff"/>
<rect x="41" y="40" width="1" height="1" fill="#fbcfe8"/>
<rect x="42" y="40" width="3" height="1" fill="#ffffff"/>
<rect x="7" y="41" width="1" height="1" fill="#14532d"/>
<rect x="8" y="41" width="2" height="1" fill="#15803d"/>
<rect x="10" y="41" width="3" height="1" fill="#22c55e"/>
<rect x="13" y="41" width="3" height="1" fill="#f43f5e"/>
<rect x="16" y="41" width="4" height="1" fill="#fb7185"/>
<rect x="20" y="41" width="6" height="1" fill="#ffffff"/>
<rect x="27" y="41" width="1" height="1" fill="#fefce8"/>
<rect x="28" y="41" width="1" height="1" fill="#fbcfe8"/>
<rect x="29" y="41" width="1" height="1" fill="#fefce8"/>
<rect x="30" y="41" width="3" height="1" fill="#fef08a"/>
<rect x="33" y="41" width="5" height="1" fill="#fefce8"/>
<rect x="38" y="41" width="4" height="1" fill="#ffffff"/>
<rect x="42" y="41" width="1" height="1" fill="#fbcfe8"/>
<rect x="44" y="41" width="1" height="1" fill="#fda4af"/>
<rect x="50" y="41" width="3" height="1" fill="#15803d"/>
<rect x="7" y="42" width="1" height="1" fill="#14532d"/>
<rect x="8" y="42" width="2" height="1" fill="#15803d"/>
<rect x="10" y="42" width="2" height="1" fill="#22c55e"/>
<rect x="12" y="42" width="2" height="1" fill="#f43f5e"/>
<rect x="14" y="42" width="1" height="1" fill="#4ade80"/>
<rect x="15" y="42" width="1" height="1" fill="#f43f5e"/>
<rect x="16" y="42" width="4" height="1" fill="#fb7185"/>
<rect x="20" y="42" width="1" height="1" fill="#22c55e"/>
<rect x="21" y="42" width="3" height="1" fill="#ffffff"/>
<rect x="24" y="42" width="1" height="1" fill="#14532d"/>
<rect x="25" y="42" width="3" height="1" fill="#ffffff"/>
<rect x="28" y="42" width="1" height="1" fill="#fbcfe8"/>
<rect x="29" y="42" width="1" height="1" fill="#fefce8"/>
<rect x="31" y="42" width="1" height="1" fill="#fef08a"/>
<rect x="32" y="42" width="4" height="1" fill="#fefce8"/>
<rect x="36" y="42" width="2" height="1" fill="#ffffff"/>
<rect x="39" y="42" width="1" height="1" fill="#ffffff"/>
<rect x="41" y="42" width="2" height="1" fill="#ffffff"/>
<rect x="43" y="42" width="2" height="1" fill="#fda4af"/>
<rect x="6" y="43" width="1" height="1" fill="#14532d"/>
<rect x="7" y="43" width="2" height="1" fill="#15803d"/>
<rect x="9" y="43" width="4" height="1" fill="#22c55e"/>
<rect x="13" y="43" width="1" height="1" fill="#4ade80"/>
<rect x="14" y="43" width="2" height="1" fill="#f43f5e"/>
<rect x="16" y="43" width="5" height="1" fill="#fb7185"/>
<rect x="21" y="43" width="6" height="1" fill="#ffffff"/>
<rect x="27" y="43" width="1" height="1" fill="#fbcfe8"/>
<rect x="28" y="43" width="6" height="1" fill="#fefce8"/>
<rect x="34" y="43" width="7" height="1" fill="#ffffff"/>
<rect x="42" y="43" width="1" height="1" fill="#ffffff"/>
<rect x="43" y="43" width="1" height="1" fill="#fda4af"/>
<rect x="6" y="44" width="1" height="1" fill="#14532d"/>
<rect x="7" y="44" width="2" height="1" fill="#15803d"/>
<rect x="9" y="44" width="4" height="1" fill="#22c55e"/>
<rect x="13" y="44" width="1" height="1" fill="#4ade80"/>
<rect x="14" y="44" width="1" height="1" fill="#86efac"/>
<rect x="15" y="44" width="1" height="1" fill="#4ade80"/>
<rect x="16" y="44" width="2" height="1" fill="#f43f5e"/>
<rect x="18" y="44" width="1" height="1" fill="#fb7185"/>
<rect x="19" y="44" width="1" height="1" fill="#22c55e"/>
<rect x="20" y="44" width="2" height="1" fill="#fb7185"/>
<rect x="22" y="44" width="2" height="1" fill="#ffffff"/>
<rect x="25" y="44" width="2" height="1" fill="#ffffff"/>
<rect x="27" y="44" width="1" height="1" fill="#fbcfe8"/>
<rect x="28" y="44" width="1" height="1" fill="#ffffff"/>
<rect x="30" y="44" width="1" height="1" fill="#fefce8"/>
<rect x="31" y="44" width="12" height="1" fill="#ffffff"/>
<rect x="43" y="44" width="1" height="1" fill="#fda4af"/>
<rect x="49" y="44" width="3" height="1" fill="#166534"/>
<rect x="4" y="45" width="1" height="1" fill="#14532d"/>
<rect x="5" y="45" width="2" height="1" fill="#15803d"/>
<rect x="7" y="45" width="4" height="1" fill="#22c55e"/>
<rect x="11" y="45" width="1" height="1" fill="#4ade80"/>
<rect x="12" y="45" width="1" height="1" fill="#86efac"/>
<rect x="13" y="45" width="1" height="1" fill="#4ade80"/>
<rect x="14" y="45" width="4" height="1" fill="#22c55e"/>
<rect x="18" y="45" width="1" height="1" fill="#f43f5e"/>
<rect x="19" y="45" width="2" height="1" fill="#fb7185"/>
<rect x="21" y="45" width="1" height="1" fill="#14532d"/>
<rect x="22" y="45" width="1" height="1" fill="#fb7185"/>
<rect x="23" y="45" width="3" height="1" fill="#ffffff"/>
<rect x="26" y="45" width="1" height="1" fill="#fbcfe8"/>
<rect x="28" y="45" width="11" height="1" fill="#ffffff"/>
<rect x="40" y="45" width="3" height="1" fill="#ffffff"/>
<rect x="43" y="45" width="1" height="1" fill="#fb7185"/>
<rect x="4" y="46" width="2" height="1" fill="#14532d"/>
<rect x="6" y="46" width="2" height="1" fill="#15803d"/>
<rect x="8" y="46" width="3" height="1" fill="#22c55e"/>
<rect x="11" y="46" width="1" height="1" fill="#4ade80"/>
<rect x="12" y="46" width="1" height="1" fill="#86efac"/>
<rect x="13" y="46" width="1" height="1" fill="#4ade80"/>
<rect x="14" y="46" width="3" height="1" fill="#22c55e"/>
<rect x="17" y="46" width="2" height="1" fill="#15803d"/>
<rect x="19" y="46" width="1" height="1" fill="#fb7185"/>
<rect x="20" y="46" width="1" height="1" fill="#14532d"/>
<rect x="21" y="46" width="2" height="1" fill="#fb7185"/>
<rect x="24" y="46" width="1" height="1" fill="#ffffff"/>
<rect x="25" y="46" width="3" height="1" fill="#fda4af"/>
<rect x="28" y="46" width="8" height="1" fill="#ffffff"/>
<rect x="37" y="46" width="3" height="1" fill="#ffffff"/>
<rect x="40" y="46" width="3" height="1" fill="#fb7185"/>
<rect x="4" y="47" width="1" height="1" fill="#14532d"/>
<rect x="5" y="47" width="2" height="1" fill="#15803d"/>
<rect x="7" y="47" width="3" height="1" fill="#22c55e"/>
<rect x="10" y="47" width="1" height="1" fill="#4ade80"/>
<rect x="11" y="47" width="1" height="1" fill="#86efac"/>
<rect x="12" y="47" width="1" height="1" fill="#4ade80"/>
<rect x="13" y="47" width="3" height="1" fill="#22c55e"/>
<rect x="16" y="47" width="2" height="1" fill="#15803d"/>
<rect x="18" y="47" width="4" height="1" fill="#14532d"/>
<rect x="23" y="47" width="1" height="1" fill="#fb7185"/>
<rect x="24" y="47" width="1" height="1" fill="#fda4af"/>
<rect x="26" y="47" width="1" height="1" fill="#fda4af"/>
<rect x="29" y="47" width="2" height="1" fill="#fda4af"/>
<rect x="31" y="47" width="6" height="1" fill="#ffffff"/>
<rect x="37" y="47" width="6" height="1" fill="#fb7185"/>
<rect x="4" y="48" width="1" height="1" fill="#14532d"/>
<rect x="5" y="48" width="2" height="1" fill="#15803d"/>
<rect x="7" y="48" width="2" height="1" fill="#22c55e"/>
<rect x="9" y="48" width="1" height="1" fill="#4ade80"/>
<rect x="10" y="48" width="1" height="1" fill="#86efac"/>
<rect x="11" y="48" width="1" height="1" fill="#4ade80"/>
<rect x="12" y="48" width="2" height="1" fill="#22c55e"/>
<rect x="14" y="48" width="2" height="1" fill="#15803d"/>
<rect x="16" y="48" width="4" height="1" fill="#14532d"/>
<rect x="29" y="48" width="2" height="1" fill="#fda4af"/>
<rect x="31" y="48" width="2" height="1" fill="#ffffff"/>
<rect x="33" y="48" width="9" height="1" fill="#fb7185"/>
<rect x="4" y="49" width="2" height="1" fill="#14532d"/>
<rect x="6" y="49" width="2" height="1" fill="#15803d"/>
<rect x="8" y="49" width="1" height="1" fill="#22c55e"/>
<rect x="9" y="49" width="1" height="1" fill="#4ade80"/>
<rect x="10" y="49" width="1" height="1" fill="#86efac"/>
<rect x="11" y="49" width="1" height="1" fill="#4ade80"/>
<rect x="12" y="49" width="1" height="1" fill="#22c55e"/>
<rect x="13" y="49" width="2" height="1" fill="#15803d"/>
<rect x="15" y="49" width="4" height="1" fill="#14532d"/>
<rect x="30" y="49" width="10" height="1" fill="#fb7185"/>
<rect x="4" y="50" width="1" height="1" fill="#14532d"/>
<rect x="5" y="50" width="2" height="1" fill="#15803d"/>
<rect x="7" y="50" width="1" height="1" fill="#22c55e"/>
<rect x="8" y="50" width="1" height="1" fill="#4ade80"/>
<rect x="9" y="50" width="1" height="1" fill="#86efac"/>
<rect x="10" y="50" width="1" height="1" fill="#4ade80"/>
<rect x="11" y="50" width="1" height="1" fill="#22c55e"/>
<rect x="12" y="50" width="2" height="1" fill="#15803d"/>
<rect x="14" y="50" width="4" height="1" fill="#14532d"/>
<rect x="31" y="50" width="5" height="1" fill="#fb7185"/>
<rect x="37" y="50" width="2" height="1" fill="#fb7185"/>
<rect x="39" y="50" width="2" height="1" fill="#f43f5e"/>
<rect x="4" y="51" width="1" height="1" fill="#14532d"/>
<rect x="5" y="51" width="2" height="1" fill="#15803d"/>
<rect x="7" y="51" width="1" height="1" fill="#4ade80"/>
<rect x="8" y="51" width="1" height="1" fill="#86efac"/>
<rect x="9" y="51" width="1" height="1" fill="#4ade80"/>
<rect x="10" y="51" width="2" height="1" fill="#15803d"/>
<rect x="12" y="51" width="1" height="1" fill="#14532d"/>
<rect x="13" y="51" width="1" height="1" fill="#15803d"/>
<rect x="14" y="51" width="2" height="1" fill="#14532d"/>
<rect x="32" y="51" width="7" height="1" fill="#f43f5e"/>
<rect x="4" y="52" width="1" height="1" fill="#14532d"/>
<rect x="5" y="52" width="1" height="1" fill="#15803d"/>
<rect x="6" y="52" width="1" height="1" fill="#4ade80"/>
<rect x="7" y="52" width="1" height="1" fill="#86efac"/>
<rect x="8" y="52" width="1" height="1" fill="#4ade80"/>
<rect x="9" y="52" width="1" height="1" fill="#15803d"/>
<rect x="10" y="52" width="3" height="1" fill="#14532d"/>
<rect x="13" y="52" width="1" height="1" fill="#15803d"/>
<rect x="14" y="52" width="1" height="1" fill="#14532d"/>
<rect x="34" y="52" width="3" height="1" fill="#f43f5e"/>
<rect x="4" y="53" width="2" height="1" fill="#14532d"/>
<rect x="6" y="53" width="1" height="1" fill="#4ade80"/>
<rect x="7" y="53" width="1" height="1" fill="#86efac"/>
<rect x="8" y="53" width="1" height="1" fill="#4ade80"/>
<rect x="9" y="53" width="4" height="1" fill="#14532d"/>
<rect x="35" y="53" width="3" height="1" fill="#f43f5e"/>
<rect x="4" y="54" width="1" height="1" fill="#14532d"/>
<rect x="5" y="54" width="1" height="1" fill="#4ade80"/>
<rect x="6" y="54" width="1" height="1" fill="#86efac"/>
<rect x="7" y="54" width="2" height="1" fill="#4ade80"/>
<rect x="9" y="54" width="3" height="1" fill="#14532d"/>
<rect x="35" y="54" width="1" height="1" fill="#f43f5e"/>
<rect x="5" y="55" width="1" height="1" fill="#4ade80"/>
<rect x="6" y="55" width="1" height="1" fill="#86efac"/>
<rect x="7" y="55" width="2" height="1" fill="#4ade80"/>
<rect x="9" y="55" width="1" height="1" fill="#14532d"/>
<rect x="5" y="56" width="1" height="1" fill="#4ade80"/>
<rect x="6" y="56" width="1" height="1" fill="#86efac"/>
<rect x="7" y="56" width="1" height="1" fill="#4ade80"/>
<rect x="5" y="57" width="1" height="1" fill="#4ade80"/>
<rect x="6" y="57" width="1" height="1" fill="#86efac"/>
<rect x="7" y="57" width="1" height="1" fill="#4ade80"/>
</svg>